<svg width="35" height="32" viewBox="0 0 35 32" fill="none" xmlns="http://www.w3.org/2000/svg">
<path fill-rule="evenodd" clip-rule="evenodd" d="M30.3668 23.5315C30.6552 22.4717 30.4218 21.8734 30.2006 21.5938C29.9795 21.3142 29.451 20.9494 28.3533 20.986C27.2569 21.0226 25.8512 21.484 24.5263 22.532C23.2013 23.5801 22.4287 24.8418 22.1406 25.9003C21.8522 26.9601 22.0856 27.5583 22.3068 27.838C22.528 28.1176 23.0564 28.4824 24.1541 28.4458C25.2505 28.4092 26.6562 27.9478 27.9812 26.8998C29.3062 25.8517 30.0788 24.59 30.3668 23.5315ZM30.1847 29.6854C33.903 26.7442 35.1573 22.1349 32.9863 19.3903C30.8153 16.6457 26.0411 16.8051 22.3228 19.7464C18.6045 22.6876 17.3501 27.2969 19.5211 30.0415C21.6921 32.786 26.4664 32.6266 30.1847 29.6854Z" fill="#00CC66"/>
<path fill-rule="evenodd" clip-rule="evenodd" d="M3.68507 23.5315C3.39666 22.4717 3.63007 21.8734 3.85124 21.5938C4.07242 21.3142 4.60084 20.9494 5.69858 20.986C6.79496 21.0226 8.20064 21.484 9.52561 22.532C10.8506 23.5801 11.6232 24.8418 11.9112 25.9003C12.1997 26.9601 11.9663 27.5583 11.7451 27.838C11.5239 28.1176 10.9955 28.4824 9.89774 28.4458C8.80136 28.4092 7.39568 27.9478 6.07071 26.8998C4.74573 25.8517 3.97313 24.59 3.68507 23.5315ZM3.86721 29.6854C0.148901 26.7442 -1.10543 22.1349 1.06557 19.3903C3.23658 16.6457 8.01081 16.8051 11.7291 19.7464C15.4474 22.6876 16.7018 27.2969 14.5308 30.0415C12.3597 32.786 7.58551 32.6266 3.86721 29.6854Z" fill="#00CC66"/>
<path fill-rule="evenodd" clip-rule="evenodd" d="M3.68434 8.4685C3.39593 9.52832 3.62933 10.1266 3.85051 10.4062C4.07168 10.6858 4.60011 11.0506 5.69785 11.014C6.79423 10.9774 8.1999 10.516 9.52488 9.46796C10.8499 8.41989 11.6225 7.1582 11.9105 6.0997C12.1989 5.03989 11.9655 4.44166 11.7443 4.16205C11.5232 3.88244 10.9947 3.51757 9.897 3.55422C8.80063 3.59082 7.39495 4.05218 6.06997 5.10025C4.745 6.14832 3.97239 7.41001 3.68434 8.4685ZM3.86648 2.31458C0.148168 5.2558 -1.10617 9.86507 1.06484 12.6097C3.23584 15.3543 8.01007 15.1949 11.7284 12.2536C15.4467 9.31241 16.701 4.70314 14.53 1.95855C12.359 -0.786046 7.58478 -0.626647 3.86648 2.31458Z" fill="#00CC66"/>
<path fill-rule="evenodd" clip-rule="evenodd" d="M30.3667 8.4685C30.6551 9.52832 30.4217 10.1266 30.2005 10.4062C29.9793 10.6858 29.4509 11.0506 28.3532 11.014C27.2568 10.9774 25.8511 10.516 24.5261 9.46796C23.2012 8.41989 22.4286 7.1582 22.1405 6.0997C21.8521 5.03989 22.0855 4.44165 22.3067 4.16204C22.5279 3.88243 23.0563 3.51756 24.154 3.55421C25.2504 3.59082 26.6561 4.05218 27.9811 5.10025C29.306 6.14832 30.0786 7.41001 30.3667 8.4685ZM30.1845 2.31458C33.9029 5.2558 35.1572 9.86507 32.9862 12.6097C30.8152 15.3543 26.0409 15.1949 22.3226 12.2536C18.6043 9.31241 17.35 4.70314 19.521 1.95855C21.692 -0.786048 26.4662 -0.626648 30.1845 2.31458Z" fill="#00CC66"/>
</svg>
