<svg width="510" height="121" viewBox="0 0 510 121" fill="none" xmlns="http://www.w3.org/2000/svg">
<path fill-rule="evenodd" clip-rule="evenodd" d="M114.824 88.9785C115.915 84.971 115.032 82.709 114.196 81.6517C113.36 80.5944 111.362 79.2148 107.211 79.3533C103.065 79.4918 97.7499 81.2363 92.7398 85.1993C87.7297 89.1623 84.8083 93.9331 83.7191 97.9355C82.6286 101.943 83.5111 104.205 84.3474 105.262C85.1838 106.32 87.1818 107.699 91.3327 107.561C95.4784 107.422 100.794 105.678 105.804 101.715C110.814 97.7517 113.735 92.9809 114.824 88.9785ZM114.136 112.248C128.195 101.127 132.938 83.6977 124.729 73.3197C116.52 62.9417 98.4676 63.5445 84.4078 74.666C70.348 85.7875 65.605 103.216 73.8141 113.594C82.0232 123.972 100.076 123.37 114.136 112.248Z" fill="#00CC66"/>
<path fill-rule="evenodd" clip-rule="evenodd" d="M13.9342 88.9785C12.8437 84.971 13.7262 82.709 14.5625 81.6517C15.3989 80.5944 17.397 79.2148 21.5478 79.3533C25.6935 79.4918 31.0087 81.2363 36.0188 85.1993C41.0288 89.1623 43.9502 93.9331 45.0394 97.9355C46.13 101.943 45.2474 104.205 44.4111 105.262C43.5748 106.32 41.5767 107.699 37.4258 107.561C33.2802 107.422 27.965 105.678 22.9549 101.715C17.9448 97.7517 15.0234 92.9809 13.9342 88.9785ZM14.6229 112.248C0.56307 101.127 -4.17989 83.6977 4.02923 73.3197C12.2383 62.9417 30.2909 63.5445 44.3507 74.666C58.4106 85.7875 63.1535 103.216 54.9444 113.594C46.7353 123.972 28.6828 123.37 14.6229 112.248Z" fill="#00CC66"/>
<path fill-rule="evenodd" clip-rule="evenodd" d="M13.9314 32.0215C12.8409 36.029 13.7234 38.291 14.5597 39.3483C15.3961 40.4056 17.3941 41.7852 21.545 41.6467C25.6907 41.5082 31.0059 39.7637 36.016 35.8007C41.026 31.8377 43.9474 27.0669 45.0366 23.0645C46.1272 19.0571 45.2446 16.795 44.4083 15.7377C43.572 14.6805 41.5739 13.3008 37.423 13.4394C33.2774 13.5778 27.9622 15.3223 22.9521 19.2853C17.942 23.2483 15.0206 28.0191 13.9314 32.0215ZM14.6201 8.75199C0.560261 19.8735 -4.1827 37.3023 4.02642 47.6803C12.2355 58.0583 30.2881 57.4555 44.3479 46.334C58.4078 35.2125 63.1507 17.7838 54.9416 7.40576C46.7325 -2.97224 28.68 -2.36951 14.6201 8.75199Z" fill="#00CC66"/>
<path fill-rule="evenodd" clip-rule="evenodd" d="M114.824 32.0215C115.915 36.029 115.032 38.291 114.196 39.3483C113.36 40.4056 111.361 41.7852 107.211 41.6467C103.065 41.5082 97.7497 39.7637 92.7397 35.8007C87.7296 31.8377 84.8082 27.0669 83.719 23.0645C82.6284 19.0571 83.511 16.795 84.3473 15.7377C85.1836 14.6805 87.1817 13.3008 91.3326 13.4394C95.4783 13.5778 100.793 15.3223 105.804 19.2853C110.814 23.2483 113.735 28.0191 114.824 32.0215ZM114.136 8.75199C128.195 19.8735 132.938 37.3023 124.729 47.6803C116.52 58.0583 98.4675 57.4555 84.4077 46.334C70.3478 35.2125 65.6049 17.7837 73.814 7.40575C82.0231 -2.97224 100.076 -2.36951 114.136 8.75199Z" fill="#00CC66"/>
<path d="M170.372 26.779V29.1134C170.372 31.5646 169.788 33.4321 168.737 35.5331C168.271 36.7003 167.454 38.101 168.621 38.6846C169.788 39.2682 170.488 37.7508 170.722 37.2839C174.457 30.7475 180.643 25.8452 190.214 25.8452C206.205 25.8452 217.06 39.8518 217.06 57.5936C217.06 75.3353 206.205 89.3419 190.214 89.3419C180.877 89.3419 174.457 84.5563 170.722 77.7865C170.488 77.4363 170.021 76.2691 168.971 76.6192C167.687 77.0861 168.154 78.2533 168.737 79.4206C169.788 81.5216 170.372 83.3891 170.372 85.7235V108.079H155.431V26.779H170.372ZM186.713 75.8022C197.218 75.8022 202.12 67.3982 202.12 57.5936C202.12 47.7889 197.218 39.3849 186.713 39.3849C176.908 39.3849 170.372 47.7889 170.372 57.5936C170.372 67.3982 176.908 75.8022 186.713 75.8022Z" fill="#00CC66"/>
<path d="M222.709 71.4835C222.709 57.827 232.748 52.8079 245.12 52.1076C256.092 51.524 265.78 52.5745 265.663 46.8551C265.546 42.6531 263.912 37.9843 253.291 37.9843C242.786 37.9843 240.101 42.303 239.284 47.322H224.577C226.678 31.798 239.984 25.8452 253.758 25.8452C267.881 25.8452 280.604 30.5141 280.604 54.3253V88.4081H265.663V84.0894C265.663 81.2881 266.364 79.3038 267.414 77.3196C267.881 76.2691 268.348 75.1018 267.297 74.635C266.13 74.1681 265.663 75.3353 265.43 75.9189C261.928 84.4396 255.158 89.3419 244.186 89.3419C232.631 89.3419 222.709 81.8717 222.709 71.4835ZM265.663 56.6598C262.162 60.5116 256.559 61.0952 247.688 62.029C241.268 62.7293 237.65 65.1805 237.65 70.6664C237.65 75.8022 242.552 79.0704 249.439 78.1366C257.376 77.0861 265.546 71.9504 265.663 56.6598Z" fill="#00CC66"/>
<path d="M304.74 39.9685C305.44 40.0853 306.024 39.1515 306.14 38.8013C309.875 30.2806 313.26 25.8452 328.317 25.8452V41.019C310.926 39.8518 305.907 46.0381 305.907 61.6788V88.4081H290.966V26.779H305.907V30.1639C305.907 32.8485 305.206 35.1829 304.156 37.2839C303.689 38.3344 303.339 39.7351 304.74 39.9685Z" fill="#00CC66"/>
<path d="M378.224 39.8518H361.416V67.9818C361.416 74.7517 361.533 75.3353 367.836 75.3353H378.224V88.4081H364.684C352.312 88.4081 346.476 84.3229 346.476 69.4992V39.8518H335.27V26.779H346.476V13.1431H361.416V26.779H378.224V39.8518Z" fill="#00CC66"/>
<path d="M421.97 25.8452C435.277 25.8452 444.147 34.4826 444.147 51.9909V88.4081H429.207V57.1267C429.207 43.2367 425.589 39.3849 417.768 39.3849C409.131 39.3849 401.194 49.0728 401.194 63.3129V88.4081H386.253V26.779H401.194V30.6308C401.194 34.3659 400.493 36.5836 399.326 39.0348C398.859 40.0853 398.159 41.7194 399.676 42.0695C400.61 42.303 400.96 41.6026 401.427 40.6689C404.229 34.4826 411.232 25.8452 421.97 25.8452Z" fill="#00CC66"/>
<path d="M451.594 71.4835C451.594 57.827 461.632 52.8079 474.005 52.1076C484.976 51.524 494.664 52.5745 494.548 46.8551C494.431 42.6531 492.797 37.9843 482.175 37.9843C471.67 37.9843 468.986 42.303 468.168 47.322H453.461C455.562 31.798 468.869 25.8452 482.642 25.8452C496.765 25.8452 509.488 30.5141 509.488 54.3253V88.4081H494.548V84.0894C494.548 81.2881 495.248 79.3038 496.298 77.3196C496.765 76.2691 497.232 75.1018 496.182 74.635C495.015 74.1681 494.548 75.3353 494.314 75.9189C490.813 84.4396 484.043 89.3419 473.071 89.3419C461.515 89.3419 451.594 81.8717 451.594 71.4835ZM494.548 56.6598C491.046 60.5116 485.443 61.0952 476.572 62.029C470.153 62.7293 466.534 65.1805 466.534 70.6664C466.534 75.8022 471.437 79.0704 478.323 78.1366C486.26 77.0861 494.431 71.9504 494.548 56.6598Z" fill="#00CC66"/>
</svg>
